<?xml version="1.0" encoding="utf-8"?>
<!-- Generator: Adobe Illustrator 24.0.1, SVG Export Plug-In . SVG Version: 6.00 Build 0)  -->
<svg version="1.1" id="Layer_1" xmlns="http://www.w3.org/2000/svg" xmlns:xlink="http://www.w3.org/1999/xlink" x="0px" y="0px"
	 viewBox="0 0 792 612" style="enable-background:new 0 0 792 612;" xml:space="preserve">
<style type="text/css">
	.st0{fill:#2A3376;}
</style>
<path class="st0" d="M546.87,400.38c-0.5-6.47-1.99-12.94-3.48-19.41c-2.99-13.44-10.45-25.88-20.9-34.84
	c-9.46-6.97-19.91-12.94-30.86-16.92l-3.48-1.49l5.97-6.47c2.99-3.48,6.47-6.97,8.96-10.45c13.94-18.91,26.38-37.83,26.88-62.71
	c0.5-11.45-4.48-22.4-13.44-29.86c-9.46-7.47-21.4-11.45-33.35-9.46c-4.98,0-9.95,0.5-14.43,1.49l-11.45,1.99
	c-3.48,1-7.47,1.49-10.45,1.99c17.92-50.77,31.85-102.53,41.81-155.29c2.99-11.95,2.49-24.39-1-35.84
	c-1.99-7.47-5.97-10.45-10.45-10.45c-1.99,0-3.98,0.5-5.97,1c-8.46,3.98-15.93,9.95-21.4,17.92
	c-32.35,39.32-62.71,81.13-89.59,124.43c-9.46,13.94-18.42,27.38-26.88,41.31c-4.98,7.96-13.94,12.44-22.9,11.95h-8.46
	c-22.9,0-45.79,3.48-68.19,9.46l-1.99,0.5c-4.48,1-8.46,1.99-8.46,6.97c0.5,4.98,2.99,5.48,7.96,8.46c1,0.5,1.99,1,2.99,1.49
	c13.44,7.96,23.39,20.9,26.88,36.33c5.48,15.43,3.98,32.35-4.48,46.79c-11.45,17.92-21.4,37.33-28.87,57.24c0,1-0.5,1.99-1,2.99
	c-2.49,5.48-3.98,9.46,1,12.94c1.49,1,2.99,1.49,4.48,1.49c2.99,0,4.48-2.99,5.97-5.97c0.5-1,1-2.49,1.99-2.99
	c3.98-5.97,7.47-12.94,10.45-19.41c10.45-27.87,23.89-54.75,39.82-80.14c7.96-13.94,15.93-28.37,23.89-42.81
	c7.47-17.92,25.38-28.37,44.3-26.88c5.97,0,11.95,0.5,17.92,1c5.48,0.5,10.45,2.49,16.43,3.48c3.48,1,7.47,1.49,11.45,2.49h1.99
	c1.49,0.5,2.99,1,4.48,1c2.49,0,3.48-1,2.99-3.48c0-1-0.5-2.49-1.49-2.99c-1.49-1-2.99-1.49-4.48-1.49s-2.49,0-3.48-0.5
	c-21.4-4.48-43.3-6.47-65.2-6.97l-2.99-0.5l1-1.99c13.44-18.91,26.88-38.82,39.32-57.74l7.96-11.95
	c11.45-19.41,25.88-40.32,42.31-60.72c7.96-10.45,15.43-19.41,22.9-27.87c2.99-2.49,4.48-5.48,6.97-7.96
	c3.48-5.48,7.96-9.95,12.94-14.43c1.49-1,2.99-1.49,4.48-1.99h1h0.5c1,0.5,1.99,1,1.99,2.49c6.97,11.45-13.44,82.13-17.42,96.06
	c-5.97,21.4-13.44,43.3-20.41,64.71c-0.5,1-1,1.99-1.49,3.48c-0.5,1.49-0.5,2.49-1,3.48c-1.49,2.99-2.49,5.97-3.98,8.96
	c-0.5,2.49-1.49,4.48-2.49,6.97c-0.5,1.99-1,3.48-1.99,5.97c-1.49,5.97-4.48,11.45-8.96,15.93
	c-39.82,29.86-70.18,72.17-95.07,132.89c-10.45,25.88-20.41,53.76-17.92,85.61c-1.49,11.95,6.97,22.9,18.91,24.89
	c2.49,0.5,4.48,0.5,6.97,0h1v1c0.5,2.49-0.5,4.98-2.99,5.97c0,0.5-1,1-1.49,1.49c-14.43,18.42-27.87,37.83-28.37,65.2
	c-0.5,12.44,4.48,24.39,13.44,32.85c9.95,8.96,22.4,14.43,35.84,15.93c8.96,0.5,18.42,0.5,27.38-1c3.48-0.5,7.96-1.49,10.95-2.49
	c63.21-18.91,114.98-63.71,142.85-123.44c5.48-10.45,9.46-21.4,11.95-32.85C547.36,425.27,548.36,412.82,546.87,400.38z
	 M271.62,292.87l-0.5-3.98c-1.49-21.4-11.95-41.31-28.87-54.75c-3.98-2.99-4.98-5.48-4.48-6.97c0.5-1.49,0.5-2.99,4.98-3.48
	c19.41-4.48,38.82-7.47,58.73-7.96c4.98,0,10.45,0,14.93,0.5h2.99L271.62,292.87z M332.34,460.11c-1.49,1.99-3.48,3.48-5.97,3.48
	c-1.49,0.5-3.48,0.5-4.98,0c-3.98-1.49-5.97-4.98-5.48-8.96c0-0.5,0-1,0-1.99c-1.99-24.89,2.49-49.77,12.44-72.67
	c14.93-45.29,39.32-86.61,72.17-120.95l1.99-1.99c3.48-4.98,8.46-8.46,14.43-10.45l2.99-0.5l-1,1.99
	c-6.47,19.41-12.44,39.32-18.42,57.74c-14.43,47.28-27.38,90.59-50.77,131.4c-3.48,5.97-7.47,11.45-11.95,16.92
	C335.83,456.13,333.84,458.12,332.34,460.11z M530.44,453.14c-24.39,58.73-70.18,101.04-135.38,126.92
	c-4.48,1.49-8.96,2.49-13.44,3.48c-1.99,0-3.98,1-6.97,1c-16.92,2.49-35.34,5.48-51.27-10.45c-15.93-15.93-10.45-34.84-5.97-47.78
	c16.43-45.29,54.75-74.66,91.58-101.04c14.93-10.45,30.86-18.42,45.29-27.87c1.49-1,2.49-1.99,2.49-2.99s-2.49-3.98-6.47-1.99
	c-11.95,5.97-23.39,12.44-34.34,19.41c-14.93,9.46-28.87,19.91-42.31,29.86c0,0.5-0.5,1-1,1c-1,1.49-2.49,2.49-3.98,2.49
	c-1.49,0.5-2.99,0.5-4.48,0l-1-1v-1c25.88-46.29,41.31-98.55,56.24-149.82c4.48-12.44,8.46-24.39,12.44-36.83
	c2.99-9.46,5.97-18.42,8.96-27.38c9.46-9.46,21.4-14.93,34.84-16.92c7.96-1.49,15.93-1,23.39,1c14.93,3.98,24.39,18.91,21.4,34.34
	c-3.48,20.9-13.94,39.82-29.86,54.25c-4.48,4.98-8.96,9.46-14.43,13.94c-2.49,2.49-4.48,4.48-6.97,6.97
	c-3.48,1.99-4.48,6.47-1.99,9.95c0.5,0.5,0.5,1,1,1c2.49,2.99,5.48,3.48,10.95,3.48c15.93-1.49,31.36,3.98,42.81,14.93
	C548.86,385.95,541.89,425.27,530.44,453.14L530.44,453.14z"/>
</svg>
